<mxfile host="app.diagrams.net" agent="Mozilla/5.0 (Windows NT 10.0; Win64; x64) AppleWebKit/537.36 (KHTML, like Gecko) Chrome/130.0.0.0 Safari/537.36" version="24.8.2">
  <diagram id="C5RBs43oDa-KdzZeNtuy" name="Page-1">
    <mxGraphModel dx="1050" dy="557" grid="1" gridSize="10" guides="1" tooltips="1" connect="1" arrows="1" fold="1" page="1" pageScale="1" pageWidth="827" pageHeight="1169" math="0" shadow="0">
      <root>
        <mxCell id="WIyWlLk6GJQsqaUBKTNV-0" />
        <mxCell id="WIyWlLk6GJQsqaUBKTNV-1" parent="WIyWlLk6GJQsqaUBKTNV-0" />
        <mxCell id="pZJ9oLV6RxmhKyRE2Oq0-0" value="Produs" style="swimlane;fontStyle=1;align=center;verticalAlign=top;childLayout=stackLayout;horizontal=1;startSize=26;horizontalStack=0;resizeParent=1;resizeParentMax=0;resizeLast=0;collapsible=1;marginBottom=0;whiteSpace=wrap;html=1;" parent="WIyWlLk6GJQsqaUBKTNV-1" vertex="1">
          <mxGeometry x="220" y="450" width="190" height="200" as="geometry">
            <mxRectangle x="210" y="190" width="80" height="30" as="alternateBounds" />
          </mxGeometry>
        </mxCell>
        <mxCell id="pZJ9oLV6RxmhKyRE2Oq0-1" value="- nume: String&lt;div&gt;- pret: double&lt;/div&gt;&lt;div&gt;- stoc: int&lt;/div&gt;" style="text;strokeColor=none;fillColor=none;align=left;verticalAlign=top;spacingLeft=4;spacingRight=4;overflow=hidden;rotatable=0;points=[[0,0.5],[1,0.5]];portConstraint=eastwest;whiteSpace=wrap;html=1;" parent="pZJ9oLV6RxmhKyRE2Oq0-0" vertex="1">
          <mxGeometry y="26" width="190" height="64" as="geometry" />
        </mxCell>
        <mxCell id="pZJ9oLV6RxmhKyRE2Oq0-2" value="" style="line;strokeWidth=1;fillColor=none;align=left;verticalAlign=middle;spacingTop=-1;spacingLeft=3;spacingRight=3;rotatable=0;labelPosition=right;points=[];portConstraint=eastwest;strokeColor=inherit;" parent="pZJ9oLV6RxmhKyRE2Oq0-0" vertex="1">
          <mxGeometry y="90" width="190" height="10" as="geometry" />
        </mxCell>
        <mxCell id="pZJ9oLV6RxmhKyRE2Oq0-3" value="+ Produs(String nume, double pret, int stoc)&lt;div&gt;&lt;div&gt;+ getNume(): String&lt;/div&gt;&lt;div&gt;+ getPret():double&lt;/div&gt;&lt;/div&gt;&lt;div&gt;+ getStoc():int&lt;/div&gt;&lt;div&gt;+ toString(): String&lt;/div&gt;" style="text;strokeColor=none;fillColor=none;align=left;verticalAlign=top;spacingLeft=4;spacingRight=4;overflow=hidden;rotatable=0;points=[[0,0.5],[1,0.5]];portConstraint=eastwest;whiteSpace=wrap;html=1;" parent="pZJ9oLV6RxmhKyRE2Oq0-0" vertex="1">
          <mxGeometry y="100" width="190" height="100" as="geometry" />
        </mxCell>
        <mxCell id="pZJ9oLV6RxmhKyRE2Oq0-6" value="Telefon" style="swimlane;fontStyle=1;align=center;verticalAlign=top;childLayout=stackLayout;horizontal=1;startSize=26;horizontalStack=0;resizeParent=1;resizeParentMax=0;resizeLast=0;collapsible=1;marginBottom=0;whiteSpace=wrap;html=1;" parent="WIyWlLk6GJQsqaUBKTNV-1" vertex="1">
          <mxGeometry x="570" y="770" width="200" height="140" as="geometry" />
        </mxCell>
        <mxCell id="pZJ9oLV6RxmhKyRE2Oq0-7" value="-&amp;nbsp;sistemOperare: String&lt;div&gt;-&amp;nbsp;model: String&lt;/div&gt;" style="text;strokeColor=none;fillColor=none;align=left;verticalAlign=top;spacingLeft=4;spacingRight=4;overflow=hidden;rotatable=0;points=[[0,0.5],[1,0.5]];portConstraint=eastwest;whiteSpace=wrap;html=1;" parent="pZJ9oLV6RxmhKyRE2Oq0-6" vertex="1">
          <mxGeometry y="26" width="200" height="44" as="geometry" />
        </mxCell>
        <mxCell id="pZJ9oLV6RxmhKyRE2Oq0-8" value="" style="line;strokeWidth=1;fillColor=none;align=left;verticalAlign=middle;spacingTop=-1;spacingLeft=3;spacingRight=3;rotatable=0;labelPosition=right;points=[];portConstraint=eastwest;strokeColor=inherit;" parent="pZJ9oLV6RxmhKyRE2Oq0-6" vertex="1">
          <mxGeometry y="70" width="200" height="8" as="geometry" />
        </mxCell>
        <mxCell id="pZJ9oLV6RxmhKyRE2Oq0-9" value="+&amp;nbsp;getSistemOperare(): String&lt;div&gt;+&amp;nbsp;getModel(): String&lt;/div&gt;&lt;div&gt;+&amp;nbsp;toString(): String&lt;/div&gt;" style="text;strokeColor=none;fillColor=none;align=left;verticalAlign=top;spacingLeft=4;spacingRight=4;overflow=hidden;rotatable=0;points=[[0,0.5],[1,0.5]];portConstraint=eastwest;whiteSpace=wrap;html=1;" parent="pZJ9oLV6RxmhKyRE2Oq0-6" vertex="1">
          <mxGeometry y="78" width="200" height="62" as="geometry" />
        </mxCell>
        <mxCell id="pZJ9oLV6RxmhKyRE2Oq0-10" value="Laptop" style="swimlane;fontStyle=1;align=center;verticalAlign=top;childLayout=stackLayout;horizontal=1;startSize=26;horizontalStack=0;resizeParent=1;resizeParentMax=0;resizeLast=0;collapsible=1;marginBottom=0;whiteSpace=wrap;html=1;" parent="WIyWlLk6GJQsqaUBKTNV-1" vertex="1">
          <mxGeometry x="140" y="770" width="160" height="140" as="geometry" />
        </mxCell>
        <mxCell id="pZJ9oLV6RxmhKyRE2Oq0-11" value="-&amp;nbsp;greutate: double&lt;div&gt;-&amp;nbsp;autonomie: int&lt;/div&gt;" style="text;strokeColor=none;fillColor=none;align=left;verticalAlign=top;spacingLeft=4;spacingRight=4;overflow=hidden;rotatable=0;points=[[0,0.5],[1,0.5]];portConstraint=eastwest;whiteSpace=wrap;html=1;" parent="pZJ9oLV6RxmhKyRE2Oq0-10" vertex="1">
          <mxGeometry y="26" width="160" height="44" as="geometry" />
        </mxCell>
        <mxCell id="pZJ9oLV6RxmhKyRE2Oq0-12" value="" style="line;strokeWidth=1;fillColor=none;align=left;verticalAlign=middle;spacingTop=-1;spacingLeft=3;spacingRight=3;rotatable=0;labelPosition=right;points=[];portConstraint=eastwest;strokeColor=inherit;" parent="pZJ9oLV6RxmhKyRE2Oq0-10" vertex="1">
          <mxGeometry y="70" width="160" height="8" as="geometry" />
        </mxCell>
        <mxCell id="pZJ9oLV6RxmhKyRE2Oq0-13" value="+&amp;nbsp;getGreutate(): double&lt;div&gt;+&amp;nbsp;getAutonomie(): int&lt;/div&gt;&lt;div&gt;+&amp;nbsp;toString(): String&lt;/div&gt;" style="text;strokeColor=none;fillColor=none;align=left;verticalAlign=top;spacingLeft=4;spacingRight=4;overflow=hidden;rotatable=0;points=[[0,0.5],[1,0.5]];portConstraint=eastwest;whiteSpace=wrap;html=1;" parent="pZJ9oLV6RxmhKyRE2Oq0-10" vertex="1">
          <mxGeometry y="78" width="160" height="62" as="geometry" />
        </mxCell>
        <mxCell id="pZJ9oLV6RxmhKyRE2Oq0-14" value="PC" style="swimlane;fontStyle=1;align=center;verticalAlign=top;childLayout=stackLayout;horizontal=1;startSize=26;horizontalStack=0;resizeParent=1;resizeParentMax=0;resizeLast=0;collapsible=1;marginBottom=0;whiteSpace=wrap;html=1;" parent="WIyWlLk6GJQsqaUBKTNV-1" vertex="1">
          <mxGeometry x="360" y="770" width="160" height="160" as="geometry" />
        </mxCell>
        <mxCell id="pZJ9oLV6RxmhKyRE2Oq0-15" value="-&amp;nbsp;procesor: String&lt;div&gt;-&amp;nbsp;ram: int&lt;/div&gt;&lt;div&gt;- stocare: int&lt;/div&gt;" style="text;strokeColor=none;fillColor=none;align=left;verticalAlign=top;spacingLeft=4;spacingRight=4;overflow=hidden;rotatable=0;points=[[0,0.5],[1,0.5]];portConstraint=eastwest;whiteSpace=wrap;html=1;" parent="pZJ9oLV6RxmhKyRE2Oq0-14" vertex="1">
          <mxGeometry y="26" width="160" height="54" as="geometry" />
        </mxCell>
        <mxCell id="pZJ9oLV6RxmhKyRE2Oq0-16" value="" style="line;strokeWidth=1;fillColor=none;align=left;verticalAlign=middle;spacingTop=-1;spacingLeft=3;spacingRight=3;rotatable=0;labelPosition=right;points=[];portConstraint=eastwest;strokeColor=inherit;" parent="pZJ9oLV6RxmhKyRE2Oq0-14" vertex="1">
          <mxGeometry y="80" width="160" height="8" as="geometry" />
        </mxCell>
        <mxCell id="pZJ9oLV6RxmhKyRE2Oq0-17" value="+&amp;nbsp;getProcesor(): String&lt;div&gt;+&amp;nbsp;getRam(): int&lt;/div&gt;&lt;div&gt;+&amp;nbsp;getStocare(): int&lt;/div&gt;&lt;div&gt;+&amp;nbsp;toString(): String&lt;/div&gt;" style="text;strokeColor=none;fillColor=none;align=left;verticalAlign=top;spacingLeft=4;spacingRight=4;overflow=hidden;rotatable=0;points=[[0,0.5],[1,0.5]];portConstraint=eastwest;whiteSpace=wrap;html=1;" parent="pZJ9oLV6RxmhKyRE2Oq0-14" vertex="1">
          <mxGeometry y="88" width="160" height="72" as="geometry" />
        </mxCell>
        <mxCell id="pZJ9oLV6RxmhKyRE2Oq0-18" value="Consola" style="swimlane;fontStyle=1;align=center;verticalAlign=top;childLayout=stackLayout;horizontal=1;startSize=26;horizontalStack=0;resizeParent=1;resizeParentMax=0;resizeLast=0;collapsible=1;marginBottom=0;whiteSpace=wrap;html=1;" parent="WIyWlLk6GJQsqaUBKTNV-1" vertex="1">
          <mxGeometry x="610" y="450" width="160" height="140" as="geometry" />
        </mxCell>
        <mxCell id="pZJ9oLV6RxmhKyRE2Oq0-19" value="-&amp;nbsp;stocare: int&lt;div&gt;-&amp;nbsp;generatie: String&lt;/div&gt;" style="text;strokeColor=none;fillColor=none;align=left;verticalAlign=top;spacingLeft=4;spacingRight=4;overflow=hidden;rotatable=0;points=[[0,0.5],[1,0.5]];portConstraint=eastwest;whiteSpace=wrap;html=1;" parent="pZJ9oLV6RxmhKyRE2Oq0-18" vertex="1">
          <mxGeometry y="26" width="160" height="44" as="geometry" />
        </mxCell>
        <mxCell id="pZJ9oLV6RxmhKyRE2Oq0-20" value="" style="line;strokeWidth=1;fillColor=none;align=left;verticalAlign=middle;spacingTop=-1;spacingLeft=3;spacingRight=3;rotatable=0;labelPosition=right;points=[];portConstraint=eastwest;strokeColor=inherit;" parent="pZJ9oLV6RxmhKyRE2Oq0-18" vertex="1">
          <mxGeometry y="70" width="160" height="8" as="geometry" />
        </mxCell>
        <mxCell id="pZJ9oLV6RxmhKyRE2Oq0-21" value="+&amp;nbsp;getStocare(): int&lt;div&gt;+&amp;nbsp;getGeneratie(): String&lt;/div&gt;&lt;div&gt;+&amp;nbsp;toString(): String&lt;/div&gt;" style="text;strokeColor=none;fillColor=none;align=left;verticalAlign=top;spacingLeft=4;spacingRight=4;overflow=hidden;rotatable=0;points=[[0,0.5],[1,0.5]];portConstraint=eastwest;whiteSpace=wrap;html=1;" parent="pZJ9oLV6RxmhKyRE2Oq0-18" vertex="1">
          <mxGeometry y="78" width="160" height="62" as="geometry" />
        </mxCell>
        <mxCell id="pZJ9oLV6RxmhKyRE2Oq0-22" value="Magazin" style="swimlane;fontStyle=1;align=center;verticalAlign=top;childLayout=stackLayout;horizontal=1;startSize=26;horizontalStack=0;resizeParent=1;resizeParentMax=0;resizeLast=0;collapsible=1;marginBottom=0;whiteSpace=wrap;html=1;" parent="WIyWlLk6GJQsqaUBKTNV-1" vertex="1">
          <mxGeometry x="235" y="150" width="160" height="140" as="geometry" />
        </mxCell>
        <mxCell id="pZJ9oLV6RxmhKyRE2Oq0-23" value="-&amp;nbsp;produse:&amp;nbsp;Produs[]" style="text;strokeColor=none;fillColor=none;align=left;verticalAlign=top;spacingLeft=4;spacingRight=4;overflow=hidden;rotatable=0;points=[[0,0.5],[1,0.5]];portConstraint=eastwest;whiteSpace=wrap;html=1;" parent="pZJ9oLV6RxmhKyRE2Oq0-22" vertex="1">
          <mxGeometry y="26" width="160" height="26" as="geometry" />
        </mxCell>
        <mxCell id="pZJ9oLV6RxmhKyRE2Oq0-24" value="" style="line;strokeWidth=1;fillColor=none;align=left;verticalAlign=middle;spacingTop=-1;spacingLeft=3;spacingRight=3;rotatable=0;labelPosition=right;points=[];portConstraint=eastwest;strokeColor=inherit;" parent="pZJ9oLV6RxmhKyRE2Oq0-22" vertex="1">
          <mxGeometry y="52" width="160" height="8" as="geometry" />
        </mxCell>
        <mxCell id="pZJ9oLV6RxmhKyRE2Oq0-25" value="+&amp;nbsp;Magazin()&lt;div&gt;+&amp;nbsp;adaugaProdus(Produs produs): void&lt;/div&gt;&lt;div&gt;+&amp;nbsp;getProduse(): Produs[]&lt;/div&gt;" style="text;strokeColor=none;fillColor=none;align=left;verticalAlign=top;spacingLeft=4;spacingRight=4;overflow=hidden;rotatable=0;points=[[0,0.5],[1,0.5]];portConstraint=eastwest;whiteSpace=wrap;html=1;" parent="pZJ9oLV6RxmhKyRE2Oq0-22" vertex="1">
          <mxGeometry y="60" width="160" height="80" as="geometry" />
        </mxCell>
        <mxCell id="pZJ9oLV6RxmhKyRE2Oq0-26" value="Aplicatie" style="swimlane;fontStyle=1;align=center;verticalAlign=top;childLayout=stackLayout;horizontal=1;startSize=26;horizontalStack=0;resizeParent=1;resizeParentMax=0;resizeLast=0;collapsible=1;marginBottom=0;whiteSpace=wrap;html=1;" parent="WIyWlLk6GJQsqaUBKTNV-1" vertex="1">
          <mxGeometry x="530" y="130" width="250" height="290" as="geometry" />
        </mxCell>
        <mxCell id="pZJ9oLV6RxmhKyRE2Oq0-27" value="-&amp;nbsp;magazin: Magazin&lt;div&gt;-&amp;nbsp;tableModel:&amp;nbsp;DefaultTableModel&lt;/div&gt;&lt;div&gt;-&amp;nbsp;specificField1:&amp;nbsp;JTextField&lt;/div&gt;&lt;div&gt;-&amp;nbsp;specificField2:&amp;nbsp;&lt;span style=&quot;background-color: initial;&quot;&gt;JTextField&lt;/span&gt;&lt;/div&gt;&lt;div&gt;- specificPanel: JPanel&lt;/div&gt;&lt;div&gt;- specificLabel1: JLabel&lt;/div&gt;&lt;div&gt;- SpecificLabel2: JLabel&lt;/div&gt;&lt;div&gt;- tipProdusCombo:&amp;nbsp;JComboBox&amp;lt;String&amp;gt;&lt;/div&gt;&lt;div&gt;-&amp;nbsp;adaugaProdusButton:&amp;nbsp;JButton&lt;/div&gt;&lt;div&gt;-&amp;nbsp;afiseazaProduseButton:&amp;nbsp;JButton&lt;/div&gt;" style="text;strokeColor=none;fillColor=none;align=left;verticalAlign=top;spacingLeft=4;spacingRight=4;overflow=hidden;rotatable=0;points=[[0,0.5],[1,0.5]];portConstraint=eastwest;whiteSpace=wrap;html=1;" parent="pZJ9oLV6RxmhKyRE2Oq0-26" vertex="1">
          <mxGeometry y="26" width="250" height="164" as="geometry" />
        </mxCell>
        <mxCell id="pZJ9oLV6RxmhKyRE2Oq0-28" value="" style="line;strokeWidth=1;fillColor=none;align=left;verticalAlign=middle;spacingTop=-1;spacingLeft=3;spacingRight=3;rotatable=0;labelPosition=right;points=[];portConstraint=eastwest;strokeColor=inherit;" parent="pZJ9oLV6RxmhKyRE2Oq0-26" vertex="1">
          <mxGeometry y="190" width="250" height="8" as="geometry" />
        </mxCell>
        <mxCell id="pZJ9oLV6RxmhKyRE2Oq0-29" value="+&amp;nbsp;AplicatieMagazinGUI()&lt;div&gt;- configureSpecificFields(String tipProdus): void&lt;/div&gt;&lt;div&gt;- actualizeazaTabela(): void&lt;/div&gt;&lt;div&gt;+&amp;nbsp;main(String[] args)&lt;/div&gt;" style="text;strokeColor=none;fillColor=none;align=left;verticalAlign=top;spacingLeft=4;spacingRight=4;overflow=hidden;rotatable=0;points=[[0,0.5],[1,0.5]];portConstraint=eastwest;whiteSpace=wrap;html=1;" parent="pZJ9oLV6RxmhKyRE2Oq0-26" vertex="1">
          <mxGeometry y="198" width="250" height="92" as="geometry" />
        </mxCell>
        <mxCell id="pZJ9oLV6RxmhKyRE2Oq0-30" value="Extends" style="html=1;verticalAlign=bottom;endArrow=block;curved=0;rounded=0;exitX=0.5;exitY=0;exitDx=0;exitDy=0;" parent="WIyWlLk6GJQsqaUBKTNV-1" source="pZJ9oLV6RxmhKyRE2Oq0-10" target="pZJ9oLV6RxmhKyRE2Oq0-0" edge="1">
          <mxGeometry width="80" relative="1" as="geometry">
            <mxPoint x="180" y="740" as="sourcePoint" />
            <mxPoint x="260" y="740" as="targetPoint" />
          </mxGeometry>
        </mxCell>
        <mxCell id="pZJ9oLV6RxmhKyRE2Oq0-31" value="Extends" style="html=1;verticalAlign=bottom;endArrow=block;curved=0;rounded=0;exitX=0.5;exitY=0;exitDx=0;exitDy=0;" parent="WIyWlLk6GJQsqaUBKTNV-1" source="pZJ9oLV6RxmhKyRE2Oq0-14" target="pZJ9oLV6RxmhKyRE2Oq0-0" edge="1">
          <mxGeometry width="80" relative="1" as="geometry">
            <mxPoint x="440" y="710" as="sourcePoint" />
            <mxPoint x="520" y="710" as="targetPoint" />
          </mxGeometry>
        </mxCell>
        <mxCell id="pZJ9oLV6RxmhKyRE2Oq0-32" value="Extends" style="html=1;verticalAlign=bottom;endArrow=block;curved=0;rounded=0;exitX=0;exitY=0.5;exitDx=0;exitDy=0;" parent="WIyWlLk6GJQsqaUBKTNV-1" source="pZJ9oLV6RxmhKyRE2Oq0-21" target="pZJ9oLV6RxmhKyRE2Oq0-0" edge="1">
          <mxGeometry width="80" relative="1" as="geometry">
            <mxPoint x="480" y="600" as="sourcePoint" />
            <mxPoint x="560" y="600" as="targetPoint" />
          </mxGeometry>
        </mxCell>
        <mxCell id="pZJ9oLV6RxmhKyRE2Oq0-33" value="Extends" style="html=1;verticalAlign=bottom;endArrow=block;curved=0;rounded=0;exitX=0.25;exitY=0;exitDx=0;exitDy=0;" parent="WIyWlLk6GJQsqaUBKTNV-1" source="pZJ9oLV6RxmhKyRE2Oq0-6" target="pZJ9oLV6RxmhKyRE2Oq0-0" edge="1">
          <mxGeometry width="80" relative="1" as="geometry">
            <mxPoint x="530" y="720" as="sourcePoint" />
            <mxPoint x="610" y="720" as="targetPoint" />
          </mxGeometry>
        </mxCell>
        <mxCell id="pZJ9oLV6RxmhKyRE2Oq0-34" value="" style="endArrow=open;endFill=1;endSize=12;html=1;rounded=0;entryX=0.5;entryY=0;entryDx=0;entryDy=0;" parent="WIyWlLk6GJQsqaUBKTNV-1" source="pZJ9oLV6RxmhKyRE2Oq0-22" target="pZJ9oLV6RxmhKyRE2Oq0-0" edge="1">
          <mxGeometry width="160" relative="1" as="geometry">
            <mxPoint x="300" y="240" as="sourcePoint" />
            <mxPoint x="460" y="240" as="targetPoint" />
          </mxGeometry>
        </mxCell>
        <mxCell id="pZJ9oLV6RxmhKyRE2Oq0-35" value="" style="endArrow=open;endFill=1;endSize=12;html=1;rounded=0;exitX=-0.003;exitY=0.189;exitDx=0;exitDy=0;exitPerimeter=0;entryX=1.01;entryY=0.254;entryDx=0;entryDy=0;entryPerimeter=0;" parent="WIyWlLk6GJQsqaUBKTNV-1" source="pZJ9oLV6RxmhKyRE2Oq0-27" target="pZJ9oLV6RxmhKyRE2Oq0-23" edge="1">
          <mxGeometry width="160" relative="1" as="geometry">
            <mxPoint x="300" y="180" as="sourcePoint" />
            <mxPoint x="460" y="180" as="targetPoint" />
          </mxGeometry>
        </mxCell>
      </root>
    </mxGraphModel>
  </diagram>
</mxfile>
